<svg id="svg" version="1.1" xmlns="http://www.w3.org/2000/svg" xmlns:xlink="http://www.w3.org/1999/xlink" width="400" height="400" viewBox="0, 0, 400,400"><g id="svgg"><path id="path0" d="M80.000 59.392 C 77.360 60.088,75.141 61.217,73.953 62.469 C 73.377 63.075,72.792 63.458,72.653 63.319 C 72.514 63.180,72.400 63.232,72.400 63.433 C 72.399 63.635,71.938 64.336,71.375 64.990 C 70.813 65.645,70.078 66.815,69.742 67.590 C 69.407 68.366,68.968 69.313,68.766 69.695 C 68.565 70.077,68.400 71.101,68.400 71.971 C 68.400 72.841,68.220 73.664,68.000 73.800 C 67.780 73.936,67.600 75.466,67.600 77.200 C 67.600 78.934,67.420 80.464,67.200 80.600 C 66.945 80.757,66.800 86.130,66.800 95.400 C 66.800 104.670,66.945 110.043,67.200 110.200 C 67.420 110.336,67.600 111.866,67.600 113.600 C 67.600 115.334,67.780 116.864,68.000 117.000 C 68.220 117.136,68.400 118.306,68.400 119.600 C 68.400 120.894,68.580 122.064,68.800 122.200 C 69.020 122.336,69.200 123.236,69.200 124.200 C 69.200 125.164,69.380 126.064,69.600 126.200 C 69.820 126.336,70.000 127.247,70.000 128.224 C 70.000 129.201,70.180 130.000,70.400 130.000 C 70.620 130.000,70.800 130.720,70.800 131.600 C 70.800 132.480,70.980 133.200,71.200 133.200 C 71.420 133.200,71.600 133.920,71.600 134.800 C 71.600 135.680,71.780 136.400,72.000 136.400 C 72.220 136.400,72.400 136.940,72.400 137.600 C 72.400 138.260,72.580 138.800,72.800 138.800 C 73.020 138.800,73.200 139.430,73.200 140.200 C 73.200 140.970,73.380 141.600,73.600 141.600 C 73.820 141.600,74.000 142.140,74.000 142.800 C 74.000 143.460,74.180 144.000,74.400 144.000 C 74.620 144.000,74.800 144.529,74.800 145.176 C 74.800 145.823,74.980 146.464,75.200 146.600 C 75.420 146.736,75.601 147.242,75.602 147.724 C 75.604 148.206,75.874 149.116,76.202 149.746 C 76.531 150.376,76.800 151.143,76.800 151.451 C 76.800 151.759,76.957 152.323,77.150 152.705 C 78.648 155.680,79.200 156.953,79.200 157.438 C 79.200 157.747,79.380 158.000,79.600 158.000 C 79.820 158.000,80.000 158.236,80.000 158.525 C 80.000 158.814,80.360 159.795,80.800 160.706 C 81.240 161.616,81.600 162.550,81.600 162.781 C 81.600 163.011,81.744 163.200,81.920 163.200 C 82.095 163.200,82.480 163.875,82.774 164.700 C 83.068 165.525,83.644 166.678,84.054 167.262 C 84.464 167.846,84.800 168.521,84.800 168.762 C 84.800 169.003,84.980 169.200,85.200 169.200 C 85.420 169.200,85.600 169.560,85.600 170.000 C 85.600 170.440,85.780 170.800,86.000 170.800 C 86.220 170.800,86.400 171.094,86.400 171.453 C 86.400 172.089,87.823 173.600,88.422 173.600 C 88.586 173.600,90.024 175.625,91.618 178.100 C 104.505 198.121,119.922 213.899,138.200 225.776 C 142.150 228.343,143.752 229.328,147.800 231.676 C 157.073 237.057,173.468 243.474,185.200 246.313 C 196.085 248.947,197.965 249.077,193.519 246.888 C 184.023 242.213,165.275 214.747,157.009 193.400 C 153.822 185.169,151.713 177.996,149.599 168.200 C 145.371 148.607,145.542 122.957,150.037 102.600 C 150.893 98.725,151.129 97.770,152.016 94.600 C 152.508 92.840,152.897 91.091,152.881 90.712 C 152.847 89.927,150.266 87.200,149.557 87.200 C 149.298 87.200,148.600 86.705,148.005 86.100 C 147.409 85.495,146.681 84.944,146.387 84.875 C 146.092 84.806,145.548 84.401,145.178 83.975 C 144.809 83.549,144.212 83.200,143.853 83.200 C 143.494 83.200,143.200 83.050,143.200 82.868 C 143.200 82.685,142.705 82.281,142.100 81.970 C 141.495 81.660,140.709 81.089,140.353 80.703 C 139.997 80.316,139.580 80.000,139.425 80.000 C 139.271 80.000,138.392 79.493,137.472 78.873 C 136.552 78.254,135.170 77.436,134.400 77.055 C 133.630 76.675,132.460 76.026,131.800 75.611 C 131.140 75.197,130.285 74.845,129.900 74.829 C 129.515 74.813,129.200 74.620,129.200 74.400 C 129.200 74.180,128.840 74.000,128.400 74.000 C 127.960 74.000,127.600 73.820,127.600 73.600 C 127.600 73.380,127.240 73.200,126.800 73.200 C 126.360 73.200,126.000 73.020,126.000 72.800 C 126.000 72.580,125.640 72.400,125.200 72.400 C 124.760 72.400,124.400 72.264,124.400 72.098 C 124.400 71.931,123.815 71.558,123.100 71.267 C 122.385 70.977,121.108 70.393,120.262 69.970 C 119.416 69.546,118.471 69.200,118.162 69.200 C 117.853 69.200,117.600 69.020,117.600 68.800 C 117.600 68.580,117.161 68.400,116.624 68.400 C 116.087 68.400,115.536 68.220,115.400 68.000 C 115.264 67.780,114.803 67.600,114.376 67.600 C 113.949 67.600,113.600 67.420,113.600 67.200 C 113.600 66.980,113.150 66.800,112.600 66.800 C 112.050 66.800,111.600 66.620,111.600 66.400 C 111.600 66.180,111.060 66.000,110.400 66.000 C 109.740 66.000,109.200 65.820,109.200 65.600 C 109.200 65.380,108.750 65.200,108.200 65.200 C 107.650 65.200,107.200 65.020,107.200 64.800 C 107.200 64.580,106.671 64.400,106.024 64.400 C 105.377 64.400,104.736 64.220,104.600 64.000 C 104.464 63.780,104.001 63.600,103.571 63.600 C 103.141 63.600,102.477 63.438,102.095 63.239 C 101.713 63.040,100.590 62.660,99.600 62.393 C 98.610 62.127,97.440 61.762,97.000 61.582 C 96.560 61.402,95.660 61.163,95.000 61.052 C 94.340 60.940,92.990 60.644,92.000 60.392 C 91.010 60.141,89.639 59.880,88.952 59.811 C 88.266 59.743,87.318 59.564,86.844 59.414 C 85.288 58.920,81.832 58.909,80.000 59.392 M313.773 59.289 C 313.128 59.471,311.970 59.693,311.200 59.780 C 310.430 59.868,308.990 60.144,308.000 60.394 C 307.010 60.644,305.660 60.940,305.000 61.052 C 304.340 61.163,303.440 61.402,303.000 61.582 C 302.560 61.762,301.390 62.127,300.400 62.393 C 299.410 62.660,298.287 63.040,297.905 63.239 C 297.523 63.438,296.859 63.600,296.429 63.600 C 295.999 63.600,295.536 63.780,295.400 64.000 C 295.264 64.220,294.623 64.400,293.976 64.400 C 293.329 64.400,292.800 64.580,292.800 64.800 C 292.800 65.020,292.350 65.200,291.800 65.200 C 291.250 65.200,290.800 65.380,290.800 65.600 C 290.800 65.820,290.527 66.000,290.194 66.000 C 289.224 66.000,286.400 66.966,286.400 67.297 C 286.400 67.464,286.057 67.600,285.638 67.600 C 285.219 67.600,284.139 67.960,283.238 68.400 C 282.337 68.840,280.863 69.560,279.962 70.000 C 279.061 70.440,278.071 70.800,277.762 70.800 C 277.453 70.800,277.200 70.980,277.200 71.200 C 277.200 71.420,276.840 71.600,276.400 71.600 C 275.960 71.600,275.600 71.780,275.600 72.000 C 275.600 72.220,275.240 72.400,274.800 72.400 C 274.360 72.400,274.000 72.580,274.000 72.800 C 274.000 73.020,273.640 73.200,273.200 73.200 C 272.760 73.200,272.400 73.380,272.400 73.600 C 272.400 73.820,272.040 74.000,271.600 74.000 C 271.160 74.000,270.800 74.180,270.800 74.400 C 270.800 74.620,270.485 74.813,270.100 74.829 C 269.715 74.845,268.860 75.197,268.200 75.611 C 267.540 76.026,266.370 76.678,265.600 77.061 C 264.830 77.445,264.110 77.858,264.000 77.979 C 263.793 78.207,262.467 78.993,260.906 79.810 C 260.414 80.068,260.129 80.396,260.273 80.539 C 260.416 80.683,260.233 80.800,259.867 80.800 C 259.500 80.800,259.200 80.980,259.200 81.200 C 259.200 81.420,258.964 81.600,258.675 81.600 C 258.387 81.600,257.769 81.956,257.301 82.391 C 256.834 82.827,256.224 83.232,255.944 83.291 C 255.665 83.351,255.015 83.805,254.500 84.300 C 253.985 84.795,253.400 85.200,253.200 85.200 C 253.000 85.200,252.386 85.650,251.836 86.200 C 251.286 86.750,250.671 87.200,250.468 87.200 C 249.773 87.200,247.158 89.896,247.124 90.648 C 247.105 91.061,247.492 92.840,247.984 94.600 C 248.875 97.783,249.077 98.602,250.007 102.800 C 252.508 114.096,253.803 128.936,253.391 141.600 C 253.085 151.000,251.931 161.244,250.393 168.200 C 250.198 169.080,249.824 170.790,249.562 172.000 C 245.983 188.503,237.668 207.903,227.872 222.600 C 226.344 224.892,219.680 233.982,219.220 234.400 C 219.099 234.510,218.017 235.770,216.816 237.200 C 212.202 242.691,209.084 245.607,206.421 246.918 C 202.153 249.019,203.878 248.928,214.000 246.517 C 226.834 243.460,243.438 236.932,253.000 231.184 C 254.100 230.523,255.270 229.865,255.600 229.723 C 256.918 229.155,267.634 221.918,271.258 219.148 C 284.956 208.681,297.933 194.333,308.371 178.118 C 309.957 175.653,311.603 173.526,312.028 173.391 C 312.453 173.256,312.800 172.878,312.800 172.549 C 312.800 172.221,312.980 172.064,313.200 172.200 C 313.420 172.336,313.600 172.077,313.600 171.624 C 313.600 171.171,313.780 170.800,314.000 170.800 C 314.220 170.800,314.400 170.440,314.400 170.000 C 314.400 169.560,314.580 169.200,314.800 169.200 C 315.020 169.200,315.200 169.003,315.200 168.762 C 315.200 168.521,315.536 167.846,315.946 167.262 C 316.356 166.678,316.932 165.525,317.226 164.700 C 317.520 163.875,317.905 163.200,318.080 163.200 C 318.256 163.200,318.400 162.935,318.400 162.612 C 318.400 162.289,318.760 161.383,319.200 160.600 C 319.640 159.817,320.000 158.911,320.000 158.588 C 320.000 158.265,320.180 158.000,320.400 158.000 C 320.620 158.000,320.800 157.640,320.800 157.200 C 320.800 156.760,320.980 156.400,321.200 156.400 C 321.420 156.400,321.600 156.128,321.600 155.795 C 321.600 155.462,321.759 154.877,321.953 154.495 C 322.627 153.170,323.146 151.789,323.793 149.600 C 324.150 148.390,324.613 147.087,324.821 146.705 C 325.030 146.323,325.200 145.558,325.200 145.005 C 325.200 144.452,325.380 144.000,325.600 144.000 C 325.820 144.000,326.000 143.460,326.000 142.800 C 326.000 142.140,326.180 141.600,326.400 141.600 C 326.620 141.600,326.800 141.060,326.800 140.400 C 326.800 139.740,326.980 139.200,327.200 139.200 C 327.420 139.200,327.600 138.570,327.600 137.800 C 327.600 137.030,327.780 136.400,328.000 136.400 C 328.220 136.400,328.400 135.680,328.400 134.800 C 328.400 133.920,328.580 133.200,328.800 133.200 C 329.020 133.200,329.200 132.480,329.200 131.600 C 329.200 130.720,329.363 130.000,329.561 130.000 C 329.760 130.000,330.023 129.145,330.146 128.100 C 330.620 124.063,330.895 122.586,331.241 122.220 C 331.438 122.011,331.600 120.807,331.600 119.544 C 331.600 118.281,331.780 117.136,332.000 117.000 C 332.220 116.864,332.400 115.323,332.400 113.576 C 332.400 111.725,332.567 110.400,332.800 110.400 C 333.060 110.400,333.200 105.141,333.200 95.424 C 333.200 85.871,333.055 80.358,332.800 80.200 C 332.580 80.064,332.400 78.649,332.400 77.056 C 332.400 75.463,332.238 73.989,332.041 73.780 C 331.844 73.571,331.584 72.680,331.464 71.800 C 331.076 68.958,330.717 67.600,330.355 67.600 C 330.160 67.600,330.000 67.328,330.000 66.996 C 330.000 66.664,329.460 65.828,328.800 65.137 C 328.140 64.446,327.600 63.698,327.600 63.474 C 327.600 63.250,327.486 63.180,327.347 63.319 C 327.208 63.458,326.623 63.075,326.047 62.467 C 323.592 59.878,317.378 58.269,313.773 59.289 " stroke="none" fill="#c39cf3" fill-rule="evenodd"></path><path id="path1" d="M195.200 24.400 C 195.200 24.620,194.750 24.800,194.200 24.800 C 193.650 24.800,193.200 24.938,193.200 25.106 C 193.200 25.274,192.474 25.726,191.587 26.110 C 189.925 26.830,185.472 30.939,185.896 31.362 C 186.026 31.493,185.833 31.600,185.467 31.600 C 185.100 31.600,184.800 31.870,184.800 32.200 C 184.800 32.530,184.620 32.800,184.400 32.800 C 184.180 32.800,184.000 32.986,184.000 33.213 C 184.000 33.441,183.389 34.237,182.643 34.984 C 181.897 35.730,180.774 37.029,180.147 37.870 C 179.521 38.712,178.664 39.715,178.243 40.100 C 177.822 40.485,177.616 40.800,177.785 40.800 C 177.955 40.800,177.461 41.500,176.688 42.356 C 175.914 43.211,175.161 44.291,175.014 44.756 C 174.867 45.220,174.578 45.600,174.373 45.600 C 174.168 45.600,174.000 45.881,174.000 46.224 C 174.000 46.567,173.820 46.736,173.600 46.600 C 173.380 46.464,173.200 46.684,173.200 47.088 C 173.200 47.493,172.840 48.083,172.400 48.400 C 171.960 48.717,171.600 49.257,171.600 49.600 C 171.600 49.943,171.240 50.483,170.800 50.800 C 170.360 51.117,170.000 51.697,170.000 52.088 C 170.000 52.480,169.820 52.800,169.600 52.800 C 169.380 52.800,169.200 53.081,169.200 53.424 C 169.200 53.767,169.020 53.936,168.800 53.800 C 168.580 53.664,168.400 53.923,168.400 54.376 C 168.400 54.829,168.220 55.200,168.000 55.200 C 167.780 55.200,167.600 55.478,167.600 55.817 C 167.600 56.156,167.240 56.820,166.800 57.292 C 166.360 57.764,166.000 58.387,166.000 58.675 C 166.000 58.964,165.854 59.200,165.675 59.200 C 165.496 59.200,165.102 59.830,164.800 60.600 C 164.498 61.370,164.104 62.000,163.925 62.000 C 163.746 62.000,163.600 62.360,163.600 62.800 C 163.600 63.240,163.420 63.600,163.200 63.600 C 162.980 63.600,162.800 63.960,162.800 64.400 C 162.800 64.840,162.620 65.200,162.400 65.200 C 162.180 65.200,162.000 65.560,162.000 66.000 C 162.000 66.440,161.820 66.800,161.600 66.800 C 161.380 66.800,161.200 67.160,161.200 67.600 C 161.200 68.040,161.020 68.400,160.800 68.400 C 160.580 68.400,160.400 68.636,160.400 68.925 C 160.400 69.214,160.035 70.205,159.590 71.127 C 159.144 72.050,158.671 73.344,158.540 74.002 C 158.408 74.661,158.143 75.200,157.950 75.200 C 157.758 75.200,157.600 75.549,157.600 75.976 C 157.600 76.403,157.420 76.864,157.200 77.000 C 156.980 77.136,156.800 77.687,156.800 78.224 C 156.800 78.761,156.620 79.200,156.400 79.200 C 156.180 79.200,156.000 79.661,156.000 80.224 C 156.000 80.804,155.827 81.140,155.600 81.000 C 155.367 80.856,155.200 81.255,155.200 81.953 C 155.200 82.613,155.020 83.264,154.800 83.400 C 154.580 83.536,154.400 84.087,154.400 84.624 C 154.400 85.161,154.220 85.600,154.000 85.600 C 153.780 85.600,153.600 86.140,153.600 86.800 C 153.600 87.460,153.412 88.000,153.182 88.000 C 152.945 88.000,152.793 88.739,152.833 89.700 C 152.871 90.635,152.502 92.840,152.012 94.600 C 151.523 96.360,150.942 98.610,150.722 99.600 C 150.502 100.590,150.159 102.120,149.960 103.000 C 145.549 122.512,145.413 149.109,149.627 168.300 C 151.378 176.275,151.885 178.210,153.847 184.400 C 159.599 202.545,168.853 219.624,181.118 234.729 C 186.771 241.692,190.611 245.457,193.519 246.888 C 202.688 251.402,175.700 244.410,162.932 238.964 C 158.684 237.152,150.171 233.052,147.800 231.676 C 143.753 229.328,142.150 228.343,138.200 225.777 C 135.780 224.205,131.820 221.430,129.400 219.612 L 125.000 216.305 121.000 216.784 C 116.597 217.311,112.714 218.053,106.400 219.574 C 104.305 220.078,100.149 221.494,95.800 223.185 C 86.867 226.659,74.471 234.709,67.776 241.384 C 61.592 247.550,63.189 253.011,73.400 260.605 C 74.280 261.260,75.090 261.902,75.200 262.031 C 75.782 262.718,83.136 267.373,86.673 269.294 C 95.269 273.962,104.979 277.412,114.400 279.145 C 120.236 280.219,123.911 280.497,132.170 280.492 C 137.096 280.488,142.448 280.277,144.063 280.022 C 149.579 279.151,154.414 278.201,156.400 277.597 C 156.950 277.430,158.210 277.071,159.200 276.800 C 161.237 276.242,163.024 275.670,164.200 275.199 C 164.640 275.022,166.080 274.464,167.400 273.958 C 179.335 269.385,198.645 255.852,199.259 251.630 C 199.489 250.053,200.331 250.211,201.032 251.963 C 202.232 254.963,211.533 262.760,219.515 267.457 C 223.544 269.829,231.993 274.000,232.767 274.000 C 233.011 274.000,233.568 274.180,234.005 274.400 C 234.442 274.620,235.158 274.980,235.595 275.200 C 236.032 275.420,236.741 275.600,237.171 275.600 C 237.601 275.600,238.051 275.759,238.171 275.954 C 238.292 276.149,238.887 276.404,239.495 276.521 C 240.103 276.638,241.320 276.941,242.200 277.194 C 245.280 278.078,250.338 279.117,255.937 280.015 C 259.756 280.627,275.840 280.633,280.093 280.024 C 283.908 279.477,287.197 278.889,289.200 278.395 C 289.970 278.206,291.500 277.836,292.600 277.573 C 301.931 275.345,321.854 265.738,324.800 262.046 C 324.910 261.908,325.720 261.261,326.600 260.607 C 334.168 254.987,336.872 250.514,335.525 245.846 C 334.054 240.750,317.216 228.485,304.800 223.465 C 303.810 223.065,302.640 222.581,302.200 222.390 C 300.796 221.781,294.271 219.714,292.200 219.223 C 291.100 218.963,289.570 218.589,288.800 218.392 C 286.487 217.802,277.410 216.400,275.905 216.400 C 275.236 216.400,273.355 217.547,270.538 219.672 C 266.546 222.684,257.009 229.097,255.600 229.718 C 255.270 229.863,254.100 230.523,253.000 231.184 C 243.438 236.932,226.834 243.460,214.000 246.517 C 203.878 248.928,202.153 249.019,206.421 246.918 C 209.084 245.607,212.202 242.691,216.816 237.200 C 218.017 235.770,219.099 234.510,219.220 234.400 C 219.680 233.982,226.344 224.892,227.872 222.600 C 237.668 207.903,245.983 188.503,249.562 172.000 C 249.824 170.790,250.198 169.080,250.393 168.200 C 254.566 149.324,254.408 122.673,250.007 102.800 C 249.079 98.614,248.876 97.786,247.989 94.600 C 247.498 92.840,247.129 90.635,247.167 89.700 C 247.207 88.739,247.055 88.000,246.818 88.000 C 246.588 88.000,246.400 87.460,246.400 86.800 C 246.400 86.140,246.220 85.600,246.000 85.600 C 245.780 85.600,245.600 85.161,245.600 84.624 C 245.600 84.087,245.420 83.536,245.200 83.400 C 244.980 83.264,244.800 82.623,244.800 81.976 C 244.800 81.329,244.620 80.800,244.400 80.800 C 244.180 80.800,244.000 80.440,244.000 80.000 C 244.000 79.560,243.820 79.200,243.600 79.200 C 243.380 79.200,243.200 78.761,243.200 78.224 C 243.200 77.687,243.020 77.136,242.800 77.000 C 242.580 76.864,242.400 76.403,242.400 75.976 C 242.400 75.549,242.220 75.200,242.000 75.200 C 241.780 75.200,241.600 74.750,241.600 74.200 C 241.600 73.650,241.420 73.200,241.200 73.200 C 240.980 73.200,240.824 73.065,240.854 72.900 C 240.972 72.234,240.277 70.000,239.950 70.000 C 239.757 70.000,239.600 69.640,239.600 69.200 C 239.600 68.760,239.465 68.399,239.300 68.397 C 238.941 68.393,238.000 66.456,238.000 65.720 C 238.000 65.434,237.820 65.200,237.600 65.200 C 237.380 65.200,237.200 64.840,237.200 64.400 C 237.200 63.960,237.020 63.600,236.800 63.600 C 236.580 63.600,236.400 63.240,236.400 62.800 C 236.400 62.360,236.254 62.000,236.075 62.000 C 235.896 62.000,235.502 61.370,235.200 60.600 C 234.898 59.830,234.504 59.200,234.325 59.200 C 234.146 59.200,234.000 58.964,234.000 58.675 C 234.000 58.387,233.640 57.764,233.200 57.292 C 232.760 56.820,232.400 56.156,232.400 55.817 C 232.400 55.478,232.220 55.200,232.000 55.200 C 231.780 55.200,231.600 54.829,231.600 54.376 C 231.600 53.923,231.420 53.664,231.200 53.800 C 230.980 53.936,230.800 53.767,230.800 53.424 C 230.800 53.081,230.620 52.800,230.400 52.800 C 230.180 52.800,230.000 52.480,230.000 52.088 C 230.000 51.697,229.640 51.117,229.200 50.800 C 228.760 50.483,228.400 49.893,228.400 49.488 C 228.400 49.084,228.220 48.864,228.000 49.000 C 227.780 49.136,227.600 48.967,227.600 48.624 C 227.600 48.281,227.420 48.000,227.200 48.000 C 226.980 48.000,226.800 47.706,226.800 47.347 C 226.800 46.988,226.467 46.403,226.059 46.047 C 225.652 45.691,225.012 44.806,224.638 44.079 C 224.264 43.353,223.704 42.661,223.394 42.542 C 223.084 42.423,222.712 41.953,222.567 41.497 C 222.423 41.041,221.921 40.270,221.452 39.784 C 220.187 38.473,219.023 37.016,219.134 36.884 C 219.188 36.820,218.504 36.069,217.616 35.215 C 216.727 34.361,216.000 33.482,216.000 33.261 C 216.000 32.473,209.935 26.769,208.381 26.096 C 207.511 25.720,206.800 25.274,206.800 25.106 C 206.800 24.938,206.350 24.800,205.800 24.800 C 205.250 24.800,204.800 24.620,204.800 24.400 C 204.800 24.156,202.933 24.000,200.000 24.000 C 197.067 24.000,195.200 24.156,195.200 24.400 " stroke="none" fill="#ac5ceb" fill-rule="evenodd"></path><path id="path2" d="M86.700 173.927 C 86.095 173.996,85.600 174.221,85.600 174.427 C 85.600 174.632,85.060 174.800,84.400 174.800 C 83.740 174.800,83.200 174.942,83.200 175.115 C 83.200 175.288,82.811 175.459,82.336 175.495 C 81.861 175.531,81.366 175.710,81.236 175.893 C 81.106 176.077,80.730 176.228,80.400 176.229 C 79.853 176.230,77.639 177.119,75.905 178.034 C 75.523 178.235,74.938 178.400,74.605 178.400 C 74.272 178.400,74.000 178.580,74.000 178.800 C 74.000 179.020,73.640 179.200,73.200 179.200 C 72.760 179.200,72.399 179.335,72.397 179.500 C 72.393 179.859,70.456 180.800,69.720 180.800 C 69.434 180.800,69.200 180.980,69.200 181.200 C 69.200 181.420,68.928 181.600,68.595 181.600 C 68.262 181.600,67.677 181.757,67.295 181.950 C 66.913 182.142,65.790 182.709,64.800 183.210 C 63.810 183.710,62.596 184.317,62.103 184.560 C 61.610 184.802,61.205 185.135,61.203 185.300 C 61.201 185.465,60.840 185.600,60.400 185.600 C 59.960 185.600,59.600 185.780,59.600 186.000 C 59.600 186.220,59.330 186.400,59.000 186.400 C 58.670 186.400,58.400 186.580,58.400 186.800 C 58.400 187.020,58.122 187.200,57.783 187.200 C 57.444 187.200,56.780 187.560,56.308 188.000 C 55.836 188.440,55.213 188.800,54.925 188.800 C 54.636 188.800,54.400 188.980,54.400 189.200 C 54.400 189.420,54.040 189.600,53.600 189.600 C 53.160 189.600,52.800 189.780,52.800 190.000 C 52.800 190.220,52.410 190.400,51.933 190.400 C 51.457 190.400,51.181 190.514,51.320 190.653 C 51.459 190.792,50.544 191.449,49.286 192.113 C 48.029 192.777,46.550 193.562,46.000 193.857 C 45.450 194.152,44.304 195.006,43.454 195.754 C 42.604 196.502,41.434 197.357,40.854 197.654 C 40.274 197.951,39.509 198.511,39.153 198.897 C 38.797 199.284,38.302 199.600,38.053 199.600 C 37.804 199.600,37.600 199.780,37.600 200.000 C 37.600 200.220,37.319 200.400,36.976 200.400 C 36.633 200.400,36.464 200.580,36.600 200.800 C 36.736 201.020,36.691 201.200,36.499 201.200 C 36.308 201.200,35.769 201.556,35.301 201.991 C 34.834 202.427,34.230 202.832,33.959 202.891 C 33.688 202.951,32.614 203.855,31.573 204.900 C 30.531 205.945,29.552 206.800,29.396 206.800 C 29.240 206.800,28.335 207.565,27.386 208.500 C 26.437 209.435,25.107 210.692,24.430 211.294 C 23.754 211.895,23.199 212.525,23.199 212.694 C 23.198 212.862,22.659 213.360,22.000 213.800 C 21.341 214.240,20.802 214.709,20.801 214.842 C 20.801 214.974,20.395 215.538,19.900 216.094 C 19.405 216.651,18.460 217.774,17.800 218.592 C 17.140 219.409,16.285 220.370,15.900 220.728 C 15.515 221.085,15.200 221.526,15.200 221.707 C 15.200 221.888,14.747 222.490,14.192 223.044 C 13.638 223.598,13.269 224.187,13.371 224.353 C 13.473 224.519,13.207 224.907,12.779 225.215 C 12.350 225.524,12.000 225.979,12.000 226.226 C 12.000 226.474,11.640 227.002,11.200 227.400 C 10.760 227.798,10.400 228.366,10.400 228.662 C 10.400 228.958,10.253 229.200,10.074 229.200 C 9.659 229.200,8.400 231.817,8.400 232.680 C 8.400 233.039,8.283 233.216,8.139 233.073 C 7.835 232.769,6.800 234.621,6.800 235.469 C 6.800 235.787,6.620 235.936,6.400 235.800 C 6.180 235.664,6.000 235.923,6.000 236.376 C 6.000 236.829,5.820 237.200,5.600 237.200 C 5.380 237.200,5.200 237.740,5.200 238.400 C 5.200 239.060,5.020 239.600,4.800 239.600 C 4.580 239.600,4.400 239.960,4.400 240.400 C 4.400 240.840,4.220 241.200,4.000 241.200 C 3.780 241.200,3.600 241.650,3.600 242.200 C 3.600 242.750,3.420 243.200,3.200 243.200 C 2.980 243.200,2.800 243.639,2.800 244.176 C 2.800 244.713,2.640 245.252,2.444 245.373 C 2.249 245.494,1.987 246.179,1.863 246.896 C 1.302 250.142,1.060 251.019,0.651 251.281 C -0.146 251.793,0.070 280.000,0.871 280.000 C 1.052 280.000,1.200 280.630,1.200 281.400 C 1.200 282.170,1.380 282.800,1.600 282.800 C 1.820 282.800,2.000 283.325,2.000 283.967 C 2.000 284.608,2.174 285.193,2.387 285.267 C 2.600 285.340,2.819 285.985,2.872 286.700 C 2.926 287.415,3.112 288.000,3.285 288.000 C 3.458 288.000,3.600 288.349,3.600 288.776 C 3.600 289.203,3.780 289.664,4.000 289.800 C 4.220 289.936,4.400 290.397,4.400 290.824 C 4.400 291.251,4.580 291.600,4.800 291.600 C 5.020 291.600,5.200 291.960,5.200 292.400 C 5.200 292.840,5.380 293.200,5.600 293.200 C 5.820 293.200,6.000 293.560,6.000 294.000 C 6.000 294.440,6.180 294.800,6.400 294.800 C 6.620 294.800,6.800 295.160,6.800 295.600 C 6.800 296.040,6.980 296.400,7.200 296.400 C 7.420 296.400,7.600 296.760,7.600 297.200 C 7.600 297.640,7.780 298.000,8.000 298.000 C 8.220 298.000,8.400 298.360,8.400 298.800 C 8.400 299.240,8.580 299.600,8.800 299.600 C 9.020 299.600,9.200 299.870,9.200 300.200 C 9.200 300.530,9.335 300.801,9.500 300.801 C 9.665 300.802,10.133 301.612,10.539 302.601 C 10.946 303.590,11.441 304.298,11.639 304.176 C 11.838 304.053,12.000 304.334,12.000 304.800 C 12.000 305.266,12.180 305.536,12.400 305.400 C 12.620 305.264,12.800 305.433,12.800 305.776 C 12.800 306.119,12.980 306.400,13.200 306.400 C 13.420 306.400,13.600 306.670,13.600 307.000 C 13.600 307.330,13.780 307.600,14.000 307.600 C 14.220 307.600,14.400 307.778,14.400 307.997 C 14.400 308.215,14.940 308.909,15.600 309.540 C 16.260 310.171,16.800 310.892,16.800 311.143 C 16.800 311.394,16.980 311.600,17.200 311.600 C 17.420 311.600,17.600 311.790,17.600 312.023 C 17.600 312.577,31.394 326.400,31.947 326.400 C 32.182 326.400,33.003 327.030,33.773 327.800 C 34.543 328.570,35.338 329.200,35.538 329.200 C 35.739 329.200,36.615 329.875,37.484 330.700 C 38.353 331.525,39.308 332.256,39.607 332.325 C 39.905 332.394,40.452 332.799,40.822 333.225 C 41.191 333.651,41.698 334.000,41.947 334.000 C 42.196 334.000,42.400 334.180,42.400 334.400 C 42.400 334.620,42.630 334.800,42.912 334.800 C 43.193 334.800,43.683 335.160,44.000 335.600 C 44.317 336.040,44.927 336.400,45.355 336.400 C 45.783 336.400,46.016 336.517,45.873 336.661 C 45.729 336.804,46.014 337.132,46.506 337.390 C 48.279 338.319,49.374 339.013,50.166 339.710 C 50.609 340.100,51.203 340.331,51.486 340.222 C 51.769 340.114,52.000 340.194,52.000 340.401 C 52.000 340.608,52.900 341.165,54.000 341.638 C 55.100 342.111,56.000 342.656,56.000 342.849 C 56.000 343.042,56.360 343.200,56.800 343.200 C 57.240 343.200,57.600 343.380,57.600 343.600 C 57.600 343.820,57.960 344.000,58.400 344.000 C 58.840 344.000,59.200 344.150,59.200 344.332 C 59.200 344.515,59.695 344.920,60.300 345.232 C 60.905 345.544,61.490 345.916,61.600 346.059 C 61.710 346.203,62.160 346.383,62.600 346.460 C 63.040 346.537,63.670 346.870,64.000 347.200 C 64.330 347.530,64.957 347.862,65.393 347.939 C 65.829 348.015,66.667 348.420,67.255 348.839 C 67.842 349.257,68.701 349.600,69.162 349.600 C 69.623 349.600,70.001 349.735,70.003 349.900 C 70.007 350.259,71.944 351.200,72.680 351.200 C 72.966 351.200,73.200 351.380,73.200 351.600 C 73.200 351.820,73.465 352.000,73.788 352.000 C 74.111 352.000,75.017 352.360,75.800 352.800 C 76.583 353.240,77.489 353.600,77.812 353.600 C 78.135 353.600,78.400 353.780,78.400 354.000 C 78.400 354.220,78.850 354.400,79.400 354.400 C 79.950 354.400,80.400 354.580,80.400 354.800 C 80.400 355.020,80.850 355.200,81.400 355.200 C 81.950 355.200,82.400 355.399,82.400 355.643 C 82.400 355.886,82.637 355.995,82.927 355.884 C 83.216 355.772,84.329 356.104,85.399 356.619 C 86.470 357.135,87.493 357.466,87.673 357.355 C 87.853 357.244,88.000 357.343,88.000 357.576 C 88.000 357.809,88.420 358.000,88.933 358.000 C 89.447 358.000,89.993 358.127,90.148 358.282 C 90.303 358.437,90.918 358.628,91.515 358.706 C 92.112 358.785,92.660 359.018,92.733 359.225 C 92.807 359.431,93.291 359.600,93.810 359.600 C 94.328 359.600,94.864 359.780,95.000 360.000 C 95.136 360.220,95.787 360.400,96.447 360.400 C 97.145 360.400,97.544 360.567,97.400 360.800 C 97.256 361.033,97.663 361.200,98.376 361.200 C 99.049 361.200,99.600 361.380,99.600 361.600 C 99.600 361.820,100.140 362.000,100.800 362.000 C 101.460 362.000,102.000 362.180,102.000 362.400 C 102.000 362.620,102.619 362.800,103.376 362.800 C 104.133 362.800,104.864 362.980,105.000 363.200 C 105.136 363.420,105.777 363.600,106.424 363.600 C 107.071 363.600,107.600 363.742,107.600 363.915 C 107.600 364.088,108.178 364.274,108.884 364.328 C 109.591 364.382,110.266 364.575,110.384 364.758 C 110.503 364.940,111.140 365.193,111.800 365.321 C 114.413 365.824,115.433 366.075,116.200 366.403 C 117.070 366.775,118.840 367.131,121.500 367.466 C 122.435 367.584,123.200 367.842,123.200 368.040 C 123.200 368.238,123.909 368.400,124.776 368.400 C 125.643 368.400,126.464 368.580,126.600 368.800 C 126.736 369.020,127.557 369.200,128.424 369.200 C 129.291 369.200,130.000 369.380,130.000 369.600 C 130.000 369.820,130.864 370.000,131.920 370.000 C 132.976 370.000,134.011 370.163,134.220 370.361 C 134.429 370.560,135.410 370.823,136.400 370.946 C 137.390 371.070,139.370 371.359,140.800 371.590 C 142.230 371.821,144.480 372.118,145.800 372.249 C 147.120 372.380,148.260 372.648,148.333 372.844 C 148.407 373.040,149.682 373.200,151.167 373.200 C 152.652 373.200,154.002 373.335,154.166 373.500 C 154.331 373.665,155.525 373.826,156.820 373.857 C 158.115 373.888,160.035 374.102,161.087 374.332 C 162.139 374.562,164.080 374.783,165.400 374.824 C 166.720 374.865,170.370 374.976,173.510 375.070 C 176.879 375.172,179.127 375.395,178.991 375.614 C 178.851 375.841,186.878 375.985,199.600 375.985 C 213.131 375.985,220.353 375.848,220.195 375.593 C 220.041 375.343,221.930 375.200,225.376 375.200 C 228.359 375.200,230.800 375.065,230.800 374.900 C 230.800 374.735,232.375 374.571,234.300 374.537 C 239.663 374.439,245.596 373.929,245.834 373.545 C 245.951 373.355,246.836 373.200,247.800 373.200 C 248.764 373.200,249.664 373.020,249.800 372.800 C 249.936 372.580,250.363 372.400,250.748 372.400 C 251.134 372.400,251.836 372.040,252.308 371.600 C 252.780 371.160,253.323 370.800,253.514 370.800 C 253.704 370.800,254.283 370.350,254.800 369.800 C 255.317 369.250,255.591 368.800,255.409 368.800 C 255.227 368.800,255.493 368.440,256.000 368.000 C 256.507 367.560,256.777 367.200,256.599 367.200 C 256.421 367.200,256.589 366.854,256.972 366.431 C 257.355 366.008,257.767 364.924,257.888 364.021 C 258.009 363.119,258.264 362.284,258.454 362.167 C 258.644 362.049,258.800 360.253,258.800 358.176 C 258.800 355.925,258.962 354.400,259.200 354.400 C 259.436 354.400,259.600 352.960,259.600 350.880 C 259.600 348.944,259.769 347.189,259.976 346.980 C 260.183 346.771,260.384 344.890,260.424 342.800 C 260.464 340.710,260.640 338.820,260.815 338.599 C 261.114 338.222,261.304 336.228,261.834 327.900 C 261.957 325.975,262.224 324.400,262.428 324.400 C 262.633 324.400,262.800 323.950,262.800 323.400 C 262.800 322.377,264.444 321.900,264.979 322.767 C 265.104 322.968,266.008 323.133,266.987 323.133 C 267.967 323.133,268.968 323.257,269.212 323.408 C 269.456 323.559,270.949 323.860,272.528 324.077 C 274.108 324.294,275.850 324.535,276.400 324.613 C 276.950 324.690,278.790 324.879,280.488 325.033 C 282.187 325.188,283.481 325.468,283.365 325.657 C 283.248 325.846,284.344 326.000,285.800 326.000 C 287.463 326.000,288.355 326.149,288.200 326.400 C 288.046 326.650,288.855 326.800,290.353 326.800 C 291.673 326.800,292.864 326.980,293.000 327.200 C 293.136 327.420,294.126 327.600,295.200 327.600 C 296.274 327.600,297.264 327.780,297.400 328.000 C 297.536 328.220,298.627 328.400,299.824 328.400 C 301.021 328.400,302.000 328.580,302.000 328.800 C 302.000 329.022,303.067 329.200,304.400 329.200 C 305.733 329.200,306.800 329.378,306.800 329.600 C 306.800 329.822,307.859 330.000,309.176 330.000 C 310.483 330.000,311.664 330.180,311.800 330.400 C 311.936 330.620,312.926 330.800,314.000 330.800 C 315.074 330.800,316.064 330.980,316.200 331.200 C 316.336 331.420,317.427 331.600,318.624 331.600 C 319.821 331.600,320.800 331.780,320.800 332.000 C 320.800 332.222,321.867 332.400,323.200 332.400 C 324.533 332.400,325.600 332.578,325.600 332.800 C 325.600 333.020,326.590 333.200,327.800 333.200 C 329.010 333.200,330.000 333.336,330.000 333.502 C 330.000 333.669,331.035 333.860,332.300 333.928 C 333.565 333.996,334.660 334.220,334.733 334.426 C 334.807 334.632,335.932 334.800,337.233 334.800 C 338.544 334.800,339.600 334.978,339.600 335.200 C 339.600 335.420,340.579 335.600,341.776 335.600 C 342.973 335.600,344.064 335.780,344.200 336.000 C 344.511 336.503,354.283 336.538,354.467 336.037 C 354.540 335.837,354.956 335.612,355.391 335.537 C 355.826 335.461,356.606 335.040,357.123 334.600 C 357.641 334.160,358.153 333.857,358.262 333.926 C 358.371 333.996,358.783 333.681,359.177 333.226 C 359.571 332.772,360.104 332.400,360.360 332.400 C 360.617 332.400,361.461 331.766,362.236 330.991 C 363.011 330.215,363.843 329.703,364.085 329.852 C 364.348 330.015,364.410 329.939,364.238 329.662 C 364.081 329.408,364.161 329.200,364.416 329.200 C 364.671 329.200,365.383 328.660,366.000 328.000 C 366.617 327.340,367.317 326.800,367.557 326.800 C 367.797 326.800,368.218 326.440,368.493 326.000 C 368.768 325.560,369.128 325.200,369.294 325.200 C 369.460 325.200,370.380 324.435,371.338 323.500 C 372.297 322.565,373.738 321.211,374.541 320.490 C 375.343 319.770,376.000 318.994,376.000 318.767 C 376.000 318.539,376.180 318.464,376.400 318.600 C 376.620 318.736,376.800 318.670,376.800 318.454 C 376.800 318.238,378.060 316.786,379.600 315.228 C 381.140 313.669,382.400 312.308,382.400 312.202 C 382.400 311.972,383.481 310.630,384.619 309.449 C 385.069 308.982,385.782 308.014,386.205 307.300 C 386.627 306.585,387.114 306.000,387.286 306.000 C 387.459 306.000,387.603 305.775,387.607 305.500 C 387.611 305.225,388.061 304.576,388.607 304.058 C 389.153 303.540,389.600 302.887,389.600 302.607 C 389.600 302.327,389.840 301.898,390.134 301.655 C 390.428 301.411,390.907 300.489,391.198 299.606 C 391.490 298.723,391.879 298.000,392.064 298.000 C 392.249 298.000,392.400 297.640,392.400 297.200 C 392.400 296.760,392.580 296.400,392.800 296.400 C 393.020 296.400,393.200 296.040,393.200 295.600 C 393.200 295.160,393.380 294.800,393.600 294.800 C 393.820 294.800,394.000 294.440,394.000 294.000 C 394.000 293.560,394.180 293.200,394.400 293.200 C 394.620 293.200,394.800 292.966,394.800 292.680 C 394.800 291.944,395.741 290.007,396.100 290.003 C 396.265 290.001,396.400 289.460,396.400 288.800 C 396.400 288.140,396.580 287.600,396.800 287.600 C 397.020 287.600,397.200 287.060,397.200 286.400 C 397.200 285.740,397.380 285.200,397.600 285.200 C 397.820 285.200,398.000 284.570,398.000 283.800 C 398.000 283.030,398.180 282.400,398.400 282.400 C 398.620 282.400,398.800 281.896,398.800 281.280 C 398.800 280.664,399.025 279.935,399.300 279.660 C 400.026 278.934,400.026 251.542,399.300 251.300 C 399.025 251.208,398.800 250.518,398.800 249.767 C 398.800 249.015,398.620 248.400,398.400 248.400 C 398.180 248.400,398.000 247.770,398.000 247.000 C 398.000 246.230,397.820 245.600,397.600 245.600 C 397.380 245.600,397.200 245.060,397.200 244.400 C 397.200 243.740,397.020 243.200,396.800 243.200 C 396.580 243.200,396.400 242.851,396.400 242.424 C 396.400 241.997,396.220 241.536,396.000 241.400 C 395.780 241.264,395.600 240.803,395.600 240.376 C 395.600 239.949,395.420 239.600,395.200 239.600 C 394.980 239.600,394.800 239.240,394.800 238.800 C 394.800 238.360,394.620 238.000,394.400 238.000 C 394.180 238.000,394.000 237.640,394.000 237.200 C 394.000 236.760,393.820 236.400,393.600 236.400 C 393.380 236.400,393.200 235.939,393.200 235.376 C 393.200 234.796,393.027 234.460,392.800 234.600 C 392.580 234.736,392.400 234.569,392.400 234.229 C 392.400 233.423,389.759 228.437,388.769 227.374 C 388.346 226.920,388.000 226.426,388.000 226.277 C 388.000 226.128,387.647 225.600,387.215 225.103 C 386.783 224.606,386.435 224.051,386.441 223.870 C 386.447 223.688,386.081 223.217,385.626 222.823 C 385.172 222.429,384.800 221.942,384.800 221.741 C 384.800 221.541,383.630 220.148,382.200 218.646 C 380.770 217.143,379.600 215.781,379.600 215.618 C 379.600 215.456,379.240 214.907,378.800 214.400 C 378.360 213.893,378.000 213.577,378.000 213.699 C 378.000 213.820,377.370 213.290,376.600 212.520 C 375.830 211.750,375.200 210.958,375.200 210.760 C 375.200 210.562,375.029 210.400,374.819 210.400 C 374.610 210.400,373.827 209.770,373.079 209.000 C 372.331 208.230,371.502 207.600,371.236 207.600 C 370.970 207.600,370.864 207.420,371.000 207.200 C 371.136 206.980,371.039 206.800,370.784 206.800 C 370.529 206.800,369.439 205.900,368.362 204.800 C 367.285 203.700,366.205 202.800,365.962 202.800 C 365.720 202.800,365.025 202.269,364.418 201.619 C 363.811 200.970,363.066 200.385,362.761 200.319 C 362.457 200.254,361.729 199.705,361.143 199.100 C 360.558 198.495,359.926 198.000,359.740 197.999 C 359.553 197.999,358.770 197.459,358.000 196.800 C 357.230 196.141,356.375 195.601,356.100 195.601 C 355.825 195.600,355.600 195.441,355.600 195.247 C 355.600 194.924,352.616 193.032,349.900 191.632 C 349.295 191.320,348.800 190.915,348.800 190.732 C 348.800 190.550,348.440 190.400,348.000 190.400 C 347.560 190.400,347.200 190.220,347.200 190.000 C 347.200 189.780,346.880 189.600,346.488 189.600 C 346.097 189.600,345.517 189.240,345.200 188.800 C 344.883 188.360,344.303 188.000,343.912 188.000 C 343.520 188.000,343.200 187.820,343.200 187.600 C 343.200 187.380,342.840 187.200,342.400 187.200 C 341.960 187.200,341.600 187.020,341.600 186.800 C 341.600 186.580,341.330 186.400,341.000 186.400 C 340.670 186.400,340.400 186.220,340.400 186.000 C 340.400 185.780,339.939 185.600,339.376 185.600 C 338.796 185.600,338.460 185.427,338.600 185.200 C 338.736 184.980,338.477 184.800,338.024 184.800 C 337.571 184.800,337.200 184.620,337.200 184.400 C 337.200 184.180,337.014 184.000,336.786 184.000 C 336.558 184.000,335.902 183.692,335.327 183.316 C 334.753 182.939,333.904 182.574,333.442 182.504 C 332.979 182.434,332.540 182.202,332.467 181.988 C 332.393 181.775,331.988 181.600,331.567 181.600 C 331.145 181.600,330.800 181.420,330.800 181.200 C 330.800 180.980,330.440 180.800,330.000 180.800 C 329.560 180.800,329.200 180.620,329.200 180.400 C 329.200 180.180,328.851 180.000,328.424 180.000 C 327.997 180.000,327.536 179.820,327.400 179.600 C 327.264 179.380,326.793 179.200,326.353 179.200 C 325.913 179.200,325.664 179.020,325.800 178.800 C 325.940 178.573,325.604 178.400,325.024 178.400 C 324.461 178.400,324.000 178.220,324.000 178.000 C 324.000 177.780,323.651 177.600,323.224 177.600 C 322.797 177.600,322.352 177.446,322.236 177.259 C 322.004 176.883,317.579 175.381,317.100 175.516 C 316.935 175.562,316.800 175.420,316.800 175.200 C 316.800 174.980,316.275 174.800,315.633 174.800 C 314.992 174.800,314.407 174.648,314.333 174.462 C 313.713 172.889,310.400 174.489,310.400 176.362 C 310.400 176.603,310.220 176.800,310.000 176.800 C 309.780 176.800,309.600 177.070,309.600 177.400 C 309.600 177.730,309.420 178.000,309.200 178.000 C 308.980 178.000,308.800 178.270,308.800 178.600 C 308.800 178.930,308.620 179.200,308.400 179.200 C 308.180 179.200,308.000 179.390,308.000 179.622 C 308.000 180.269,299.503 192.307,298.416 193.200 C 298.282 193.310,297.801 193.885,297.346 194.478 C 294.071 198.750,282.595 210.635,278.700 213.788 C 276.400 215.650,276.342 216.000,278.333 216.000 C 279.771 216.000,281.464 216.250,286.800 217.248 C 290.462 217.933,295.116 219.131,296.095 219.639 C 296.477 219.838,297.141 220.000,297.571 220.000 C 298.001 220.000,298.464 220.180,298.600 220.400 C 298.736 220.620,299.199 220.800,299.629 220.800 C 300.059 220.800,300.723 220.959,301.105 221.153 C 301.769 221.491,302.941 221.985,304.900 222.753 C 310.426 224.919,323.548 232.454,325.200 234.410 C 325.310 234.540,325.779 234.906,326.243 235.223 C 340.030 244.660,339.798 252.552,325.443 262.377 C 324.979 262.694,324.510 263.068,324.400 263.207 C 323.426 264.440,310.518 272.000,309.386 272.000 C 309.064 272.000,308.800 272.180,308.800 272.400 C 308.800 272.620,308.535 272.800,308.212 272.800 C 307.889 272.800,306.983 273.160,306.200 273.600 C 305.417 274.040,304.421 274.400,303.988 274.400 C 303.555 274.400,303.200 274.580,303.200 274.800 C 303.200 275.020,302.851 275.200,302.424 275.200 C 301.997 275.200,301.536 275.380,301.400 275.600 C 301.264 275.820,300.724 276.000,300.200 276.000 C 299.676 276.000,299.136 276.180,299.000 276.400 C 298.864 276.620,298.324 276.800,297.800 276.800 C 297.276 276.800,296.736 276.980,296.600 277.200 C 296.464 277.420,295.834 277.600,295.200 277.600 C 294.566 277.600,293.948 277.760,293.827 277.956 C 293.706 278.151,293.021 278.412,292.304 278.534 C 291.587 278.656,290.100 278.956,289.000 279.202 C 279.712 281.273,266.732 281.955,257.600 280.853 C 255.290 280.574,252.500 280.251,251.400 280.136 C 250.300 280.021,249.229 279.763,249.020 279.563 C 248.811 279.363,247.967 279.200,247.144 279.200 C 246.321 279.200,245.536 279.020,245.400 278.800 C 245.264 278.580,244.634 278.400,244.000 278.400 C 243.366 278.400,242.736 278.220,242.600 278.000 C 242.464 277.780,241.834 277.600,241.200 277.600 C 240.566 277.600,239.936 277.420,239.800 277.200 C 239.664 276.980,239.124 276.800,238.600 276.800 C 238.076 276.800,237.536 276.620,237.400 276.400 C 237.264 276.180,236.801 276.000,236.371 276.000 C 235.941 276.000,235.277 275.841,234.895 275.647 C 234.103 275.244,232.183 274.433,231.000 274.001 C 226.893 272.502,211.928 263.923,210.800 262.420 C 210.690 262.273,210.190 261.873,209.688 261.531 C 206.641 259.450,200.400 253.387,200.400 252.509 C 200.400 252.229,200.220 252.000,200.000 252.000 C 199.780 252.000,199.600 252.245,199.600 252.544 C 199.600 253.405,193.806 259.082,190.743 261.223 C 190.004 261.739,189.310 262.269,189.200 262.400 C 189.090 262.531,188.370 263.071,187.600 263.600 C 186.830 264.129,186.110 264.679,186.000 264.822 C 185.274 265.766,172.648 272.578,168.900 274.047 C 166.941 274.815,165.769 275.309,165.105 275.647 C 164.723 275.841,164.048 276.000,163.605 276.000 C 163.162 276.000,162.800 276.180,162.800 276.400 C 162.800 276.620,162.271 276.800,161.624 276.800 C 160.977 276.800,160.336 276.980,160.200 277.200 C 160.064 277.420,159.524 277.600,159.000 277.600 C 158.476 277.600,157.936 277.780,157.800 278.000 C 157.664 278.220,156.944 278.400,156.200 278.400 C 155.456 278.400,154.736 278.580,154.600 278.800 C 154.464 279.020,153.679 279.200,152.856 279.200 C 152.033 279.200,151.189 279.363,150.980 279.563 C 150.771 279.763,149.700 280.021,148.600 280.136 C 147.500 280.251,144.710 280.574,142.400 280.852 C 132.004 282.107,116.818 281.027,107.800 278.393 C 106.920 278.136,105.613 277.832,104.896 277.719 C 104.179 277.605,103.494 277.351,103.373 277.156 C 103.252 276.960,102.724 276.800,102.200 276.800 C 101.676 276.800,101.136 276.620,101.000 276.400 C 100.864 276.180,100.324 276.000,99.800 276.000 C 99.276 276.000,98.736 275.820,98.600 275.600 C 98.464 275.380,98.003 275.200,97.576 275.200 C 97.149 275.200,96.800 275.020,96.800 274.800 C 96.800 274.580,96.485 274.394,96.100 274.387 C 95.715 274.381,94.325 273.841,93.010 273.187 C 91.696 272.534,90.495 272.000,90.341 272.000 C 89.247 272.000,76.575 264.241,75.153 262.701 C 74.797 262.315,74.347 261.996,74.153 261.991 C 73.807 261.982,73.360 261.606,67.936 256.775 C 64.711 253.902,63.479 251.611,63.454 248.441 C 63.423 244.483,65.671 241.488,72.800 235.988 C 73.790 235.225,74.690 234.495,74.800 234.366 C 75.067 234.054,80.443 230.456,83.200 228.744 C 84.410 227.993,87.380 226.417,89.800 225.242 C 93.960 223.222,94.789 222.848,97.200 221.900 C 97.750 221.684,98.513 221.348,98.895 221.153 C 99.277 220.959,99.941 220.800,100.371 220.800 C 100.801 220.800,101.264 220.620,101.400 220.400 C 101.536 220.180,102.076 220.000,102.600 220.000 C 103.124 220.000,103.664 219.820,103.800 219.600 C 103.936 219.380,104.566 219.200,105.200 219.200 C 105.834 219.200,106.452 219.040,106.573 218.844 C 106.694 218.649,107.379 218.388,108.096 218.266 C 108.813 218.144,110.300 217.854,111.400 217.621 C 114.218 217.023,118.165 216.397,121.140 216.075 L 123.679 215.800 121.140 213.636 C 119.743 212.446,116.080 208.915,113.000 205.789 C 107.238 199.942,106.661 199.315,103.605 195.589 C 102.619 194.385,101.705 193.310,101.576 193.200 C 100.449 192.242,92.000 180.262,92.000 179.622 C 92.000 179.390,91.820 179.200,91.600 179.200 C 91.380 179.200,91.200 178.930,91.200 178.600 C 91.200 178.270,91.020 178.000,90.800 178.000 C 90.580 178.000,90.400 177.730,90.400 177.400 C 90.400 177.070,90.220 176.800,90.000 176.800 C 89.780 176.800,89.600 176.575,89.600 176.300 C 89.598 175.244,87.830 173.797,86.700 173.927 " stroke="none" fill="#a4eb74" fill-rule="evenodd"></path><path id="path3" d="M89.822 175.900 C 91.959 179.195,92.524 180.000,92.699 180.000 C 92.805 180.000,92.571 179.505,92.178 178.900 C 90.041 175.605,89.476 174.800,89.301 174.800 C 89.195 174.800,89.429 175.295,89.822 175.900 M309.521 176.300 C 307.379 179.560,307.115 180.000,307.301 180.000 C 307.476 180.000,308.041 179.195,310.178 175.900 C 310.571 175.295,310.805 174.800,310.699 174.800 C 310.593 174.800,310.063 175.475,309.521 176.300 M96.812 186.322 C 97.766 187.708,98.736 188.960,98.967 189.103 C 99.441 189.396,96.592 185.329,95.672 184.400 C 95.345 184.070,95.858 184.935,96.812 186.322 M303.550 185.300 C 303.052 186.015,302.185 187.221,301.622 187.980 C 301.060 188.739,300.792 189.243,301.027 189.101 C 301.533 188.795,304.941 184.000,304.653 184.000 C 304.544 184.000,304.047 184.585,303.550 185.300 M295.356 195.900 C 291.169 200.859,284.762 207.509,280.117 211.714 C 278.972 212.751,278.209 213.600,278.422 213.600 C 279.018 213.600,292.277 200.181,295.128 196.693 C 296.518 194.992,297.575 193.600,297.476 193.600 C 297.378 193.600,296.423 194.635,295.356 195.900 M104.000 195.725 C 104.000 195.794,104.585 196.379,105.300 197.025 L 106.600 198.200 105.425 196.900 C 104.330 195.688,104.000 195.416,104.000 195.725 M106.800 198.837 C 106.800 199.386,121.084 213.600,121.635 213.600 C 122.120 213.600,122.186 213.666,117.440 209.400 C 115.481 207.640,112.286 204.449,110.340 202.308 C 108.393 200.168,106.800 198.606,106.800 198.837 M123.134 214.930 C 123.614 215.441,123.886 215.981,123.737 216.130 C 123.588 216.278,123.800 216.400,124.208 216.400 C 124.839 216.400,124.779 216.222,123.800 215.200 C 123.168 214.540,122.563 214.000,122.455 214.000 C 122.348 214.000,122.654 214.418,123.134 214.930 M276.200 215.200 L 275.050 216.400 276.025 216.368 C 276.561 216.351,276.762 216.242,276.471 216.125 C 276.077 215.968,276.171 215.669,276.840 214.957 C 277.335 214.431,277.652 214.000,277.545 214.000 C 277.437 214.000,276.832 214.540,276.200 215.200 M117.800 216.800 L 116.600 217.105 117.800 217.123 C 118.460 217.133,119.810 216.997,120.800 216.820 L 122.600 216.500 120.800 216.497 C 119.810 216.496,118.460 216.632,117.800 216.800 M279.400 216.823 C 280.280 217.005,281.630 217.143,282.400 217.130 L 283.800 217.105 282.600 216.800 C 281.940 216.632,280.590 216.494,279.600 216.493 L 277.800 216.492 279.400 216.823 M112.800 217.600 C 111.828 217.911,111.833 217.920,113.000 217.920 C 113.660 217.920,114.650 217.776,115.200 217.600 C 116.172 217.289,116.167 217.280,115.000 217.280 C 114.340 217.280,113.350 217.424,112.800 217.600 M284.800 217.600 C 285.350 217.776,286.340 217.920,287.000 217.920 C 288.167 217.920,288.172 217.911,287.200 217.600 C 286.650 217.424,285.660 217.280,285.000 217.280 C 283.833 217.280,283.828 217.289,284.800 217.600 M107.881 218.687 C 106.606 219.022,105.650 219.383,105.757 219.491 C 105.969 219.702,109.700 218.913,111.000 218.381 L 111.800 218.054 111.000 218.067 C 110.560 218.074,109.156 218.353,107.881 218.687 M289.000 218.381 C 290.287 218.907,294.030 219.703,294.238 219.495 C 294.343 219.390,293.260 219.011,291.832 218.652 C 289.103 217.967,287.645 217.827,289.000 218.381 M100.000 221.153 C 92.862 223.723,88.287 225.952,81.038 230.392 C 79.519 231.323,78.079 232.246,77.838 232.444 C 77.597 232.642,76.034 233.838,74.364 235.102 C 67.665 240.172,63.929 244.208,64.041 246.254 C 64.063 246.665,64.275 246.370,64.512 245.600 C 66.029 240.661,84.068 227.740,95.800 223.188 C 98.415 222.174,101.267 221.152,103.100 220.572 C 105.138 219.928,105.725 219.578,104.700 219.621 C 104.425 219.632,102.310 220.322,100.000 221.153 M294.837 219.771 C 294.931 219.864,296.446 220.412,298.204 220.987 C 299.962 221.563,301.760 222.192,302.200 222.386 C 302.640 222.579,303.810 223.065,304.800 223.465 C 316.842 228.330,333.980 240.691,335.488 245.600 C 335.774 246.531,335.932 246.721,335.959 246.169 C 336.090 243.503,326.300 234.658,317.400 229.401 C 313.556 227.131,312.983 226.815,310.600 225.654 C 304.003 222.441,293.638 218.572,294.837 219.771 M63.693 248.400 C 63.693 249.170,63.775 249.485,63.876 249.100 C 63.976 248.715,63.976 248.085,63.876 247.700 C 63.775 247.315,63.693 247.630,63.693 248.400 M64.022 250.622 C 63.954 253.179,69.208 258.317,78.600 264.877 C 82.902 267.882,91.051 272.304,95.500 274.047 C 95.995 274.241,96.805 274.570,97.300 274.779 C 103.282 277.295,118.644 280.952,120.474 280.296 C 120.763 280.192,119.920 279.982,118.600 279.829 C 115.922 279.519,113.839 279.117,110.000 278.170 C 108.570 277.817,106.770 277.388,106.000 277.216 C 98.340 275.509,78.262 265.612,75.200 262.034 C 75.090 261.905,74.190 261.177,73.200 260.416 C 68.723 256.972,65.611 253.695,64.722 251.485 C 64.293 250.421,64.035 250.103,64.022 250.622 M335.312 251.400 C 334.695 253.427,331.534 256.775,326.800 260.416 C 325.810 261.177,324.910 261.905,324.800 262.034 C 323.520 263.530,312.007 270.302,307.200 272.386 C 305.550 273.102,303.660 273.925,303.000 274.215 C 300.687 275.233,294.565 277.132,290.800 277.999 C 288.710 278.481,286.460 279.033,285.800 279.227 C 282.992 280.052,288.394 279.133,292.017 278.170 C 300.408 275.938,302.364 275.204,310.200 271.349 C 323.045 265.030,336.436 254.266,335.924 250.670 C 335.830 250.010,335.682 250.186,335.312 251.400 M199.364 251.067 C 198.782 252.870,198.039 253.849,195.306 256.410 C 191.728 259.764,185.246 264.671,181.516 266.849 C 179.988 267.741,178.822 268.556,178.925 268.658 C 179.142 268.875,183.689 266.156,186.600 264.069 C 192.255 260.014,198.909 253.946,199.401 252.396 C 199.573 251.855,199.890 251.626,200.265 251.770 C 200.665 251.923,200.816 251.781,200.729 251.332 C 200.544 250.377,199.643 250.202,199.364 251.067 M200.800 252.856 C 200.800 254.508,220.123 269.610,221.050 268.683 C 221.147 268.586,219.985 267.770,218.469 266.869 C 214.181 264.321,207.729 259.335,204.100 255.765 C 202.285 253.979,200.800 252.670,200.800 252.856 M174.000 270.947 C 168.270 273.806,164.561 275.272,159.200 276.796 C 154.325 278.182,152.041 278.726,149.200 279.178 C 143.612 280.067,142.262 280.396,145.200 280.154 C 147.880 279.933,154.879 278.646,157.000 277.984 C 160.710 276.825,165.907 275.112,166.600 274.819 C 169.896 273.428,171.027 272.912,174.309 271.308 C 176.349 270.311,178.114 269.339,178.232 269.148 C 178.524 268.675,178.713 268.595,174.000 270.947 M221.753 269.124 C 222.121 269.719,229.741 273.375,234.000 274.999 C 241.224 277.755,254.361 280.831,256.659 280.305 C 257.066 280.212,256.320 280.003,255.000 279.841 C 250.367 279.273,246.884 278.526,240.800 276.796 C 235.057 275.164,231.346 273.676,224.662 270.326 C 222.936 269.460,221.627 268.920,221.753 269.124 M280.200 280.000 L 279.000 280.305 280.200 280.330 C 280.860 280.343,282.120 280.205,283.000 280.023 L 284.600 279.692 283.000 279.693 C 282.120 279.694,280.860 279.832,280.200 280.000 M123.800 280.839 C 126.862 281.189,136.610 281.188,140.000 280.838 C 141.456 280.688,137.937 280.568,132.000 280.567 C 126.125 280.566,122.470 280.687,123.800 280.839 M260.000 280.838 C 263.390 281.188,273.138 281.189,276.200 280.839 C 277.530 280.687,273.875 280.566,268.000 280.567 C 262.063 280.568,258.544 280.688,260.000 280.838 " stroke="none" fill="#a4b79e" fill-rule="evenodd"></path><path id="path4" d="M92.000 179.738 C 92.000 180.182,95.915 185.900,96.442 186.226 C 96.692 186.380,95.950 185.088,94.794 183.353 C 92.530 179.958,92.000 179.273,92.000 179.738 M305.432 183.039 C 304.170 184.935,303.335 186.364,303.575 186.215 C 304.179 185.842,308.109 179.975,307.897 179.763 C 307.803 179.669,306.693 181.143,305.432 183.039 M97.051 187.200 C 97.800 188.289,101.358 192.996,101.587 193.200 C 101.710 193.310,102.618 194.390,103.604 195.600 C 105.867 198.377,106.270 198.800,106.653 198.800 C 106.823 198.800,106.319 198.125,105.534 197.300 C 104.748 196.475,102.622 193.910,100.809 191.600 C 97.801 187.768,95.956 185.607,97.051 187.200 M298.527 192.400 C 296.068 195.480,294.178 197.993,294.328 197.984 C 294.477 197.975,295.320 197.049,296.200 195.925 C 297.080 194.802,297.986 193.684,298.212 193.441 C 298.439 193.199,299.505 191.830,300.581 190.400 C 301.656 188.970,302.708 187.575,302.917 187.300 C 303.127 187.025,303.231 186.800,303.148 186.800 C 303.066 186.800,300.986 189.320,298.527 192.400 M291.800 200.400 C 290.717 201.500,289.966 202.400,290.133 202.400 C 290.430 202.400,291.230 201.630,293.170 199.477 C 294.803 197.664,293.888 198.281,291.800 200.400 M107.217 199.793 C 108.155 201.068,109.600 202.466,109.600 202.097 C 109.600 201.910,108.933 201.137,108.117 200.378 C 107.302 199.620,106.897 199.357,107.217 199.793 M112.800 205.744 C 114.450 207.458,117.060 209.959,118.600 211.302 C 121.908 214.186,120.299 212.533,114.200 206.779 C 110.606 203.389,110.350 203.199,112.800 205.744 M284.200 208.289 C 281.120 211.286,279.163 213.302,279.852 212.769 C 281.234 211.700,290.319 202.795,290.000 202.823 C 289.890 202.833,287.280 205.293,284.200 208.289 M121.600 213.768 C 121.600 213.942,122.093 214.471,122.695 214.942 L 123.790 215.800 121.395 216.033 L 119.000 216.266 121.276 216.333 C 124.037 216.414,124.335 216.070,122.786 214.586 C 122.134 213.962,121.600 213.593,121.600 213.768 M277.016 214.783 L 275.891 215.957 276.884 216.207 C 277.430 216.344,278.579 216.383,279.438 216.295 C 280.799 216.155,280.730 216.126,278.900 216.067 C 276.634 215.995,276.296 215.598,277.676 214.632 C 278.158 214.294,278.459 213.926,278.347 213.813 C 278.234 213.701,277.635 214.137,277.016 214.783 M114.705 217.083 C 115.202 217.179,115.922 217.175,116.305 217.075 C 116.687 216.975,116.280 216.896,115.400 216.901 C 114.520 216.905,114.207 216.987,114.705 217.083 M284.100 217.076 C 284.485 217.176,285.115 217.176,285.500 217.076 C 285.885 216.975,285.570 216.893,284.800 216.893 C 284.030 216.893,283.715 216.975,284.100 217.076 M109.600 218.006 C 109.178 218.282,109.415 218.323,110.400 218.142 C 112.125 217.825,112.451 217.598,111.167 217.606 C 110.635 217.609,109.930 217.789,109.600 218.006 M288.033 217.743 C 288.125 217.821,288.830 218.001,289.600 218.142 C 290.585 218.323,290.822 218.282,290.400 218.006 C 289.858 217.650,287.637 217.403,288.033 217.743 M291.633 218.544 C 291.725 218.623,292.340 218.808,293.000 218.956 C 293.876 219.152,294.038 219.115,293.600 218.818 C 293.060 218.453,291.232 218.198,291.633 218.544 M81.700 229.646 C 80.337 230.519,79.895 231.106,81.100 230.443 C 82.018 229.939,83.456 228.827,83.200 228.819 C 83.090 228.816,82.415 229.188,81.700 229.646 M316.800 228.979 C 316.800 229.089,317.340 229.459,318.000 229.800 C 318.660 230.141,319.200 230.331,319.200 230.221 C 319.200 230.111,318.660 229.741,318.000 229.400 C 317.340 229.059,316.800 228.869,316.800 228.979 M319.600 230.573 C 319.600 230.853,324.816 234.520,324.971 234.348 C 325.045 234.267,323.866 233.342,322.353 232.293 C 320.839 231.245,319.600 230.470,319.600 230.573 M327.688 236.613 C 328.286 237.243,328.847 237.677,328.935 237.579 C 329.023 237.480,328.533 236.965,327.847 236.434 L 326.600 235.469 327.688 236.613 M68.975 239.300 L 67.800 240.600 69.100 239.425 C 70.312 238.330,70.584 238.000,70.275 238.000 C 70.206 238.000,69.621 238.585,68.975 239.300 M330.571 239.097 C 331.215 239.809,331.830 240.304,331.938 240.196 C 332.045 240.088,332.058 239.955,331.967 239.900 C 331.875 239.845,331.260 239.351,330.600 238.801 L 329.400 237.803 330.571 239.097 M334.000 242.400 C 334.470 243.060,334.944 243.600,335.054 243.600 C 335.164 243.600,334.870 243.060,334.400 242.400 C 333.930 241.740,333.456 241.200,333.346 241.200 C 333.236 241.200,333.530 241.740,334.000 242.400 M63.400 247.200 C 63.246 248.110,63.204 248.938,63.307 249.040 C 63.410 249.143,63.613 248.477,63.760 247.560 C 63.907 246.643,63.948 245.815,63.853 245.720 C 63.758 245.624,63.554 246.290,63.400 247.200 M336.087 246.400 C 336.083 246.950,336.224 247.850,336.400 248.400 C 336.831 249.744,336.831 248.292,336.400 246.600 C 336.126 245.522,336.094 245.502,336.087 246.400 M64.001 251.840 C 63.999 252.466,66.081 255.219,67.446 256.395 C 68.265 257.100,68.175 256.926,67.139 255.795 C 66.336 254.918,65.301 253.570,64.841 252.800 C 64.380 252.030,64.002 251.598,64.001 251.840 M199.900 251.865 C 200.175 251.976,200.400 252.294,200.400 252.571 C 200.400 252.849,200.805 253.419,201.300 253.838 C 202.192 254.593,202.194 254.593,201.561 253.800 C 201.209 253.360,200.810 252.685,200.673 252.300 C 200.537 251.915,200.194 251.614,199.913 251.632 C 199.511 251.656,199.508 251.707,199.900 251.865 M335.167 252.900 C 334.914 253.395,333.963 254.610,333.053 255.600 L 331.400 257.399 333.133 255.800 C 334.666 254.384,336.355 252.000,335.824 252.000 C 335.716 252.000,335.421 252.405,335.167 252.900 M199.200 252.655 C 199.200 252.869,198.566 253.735,197.792 254.581 C 197.018 255.426,196.458 256.191,196.547 256.281 C 196.637 256.370,197.386 255.619,198.212 254.612 C 199.037 253.604,199.598 252.664,199.457 252.523 C 199.315 252.382,199.200 252.441,199.200 252.655 M73.089 261.230 C 73.578 261.739,74.078 262.055,74.201 261.932 C 74.324 261.809,73.924 261.392,73.312 261.006 L 72.200 260.304 73.089 261.230 M326.000 261.649 C 324.606 262.871,324.605 262.872,325.888 262.019 C 326.596 261.548,327.282 260.991,327.412 260.781 C 327.797 260.157,327.477 260.354,326.000 261.649 M75.615 263.080 C 75.628 263.369,77.047 264.368,80.570 266.569 C 82.519 267.786,81.253 266.716,78.300 264.649 C 76.815 263.610,75.607 262.904,75.615 263.080 M321.421 264.860 C 317.068 267.938,317.290 268.060,321.800 265.068 C 324.667 263.166,324.575 263.238,324.367 263.047 C 324.275 262.964,322.949 263.779,321.421 264.860 M109.200 278.782 C 109.530 279.005,110.145 279.191,110.567 279.194 C 111.590 279.202,111.271 278.973,109.800 278.644 C 108.924 278.448,108.762 278.485,109.200 278.782 M289.600 278.800 C 288.776 279.064,288.741 279.126,289.400 279.154 C 289.840 279.173,290.470 279.013,290.800 278.800 C 291.501 278.347,291.014 278.347,289.600 278.800 M112.800 279.594 C 113.130 279.811,113.835 279.991,114.367 279.994 C 115.651 280.002,115.325 279.775,113.600 279.458 C 112.615 279.277,112.378 279.318,112.800 279.594 M149.400 279.600 L 148.200 279.905 149.476 279.953 C 150.178 279.979,150.864 279.820,151.000 279.600 C 151.274 279.157,151.140 279.157,149.400 279.600 M249.004 279.606 C 249.138 279.823,249.807 280.000,250.490 280.000 C 252.001 280.000,251.849 279.800,250.080 279.463 C 249.255 279.306,248.852 279.360,249.004 279.606 M285.600 279.600 C 284.216 279.891,284.214 279.895,285.400 279.941 C 286.060 279.967,286.870 279.813,287.200 279.600 C 287.866 279.170,287.645 279.170,285.600 279.600 M117.646 280.437 C 117.951 280.630,119.010 280.776,120.000 280.762 C 122.133 280.732,121.755 280.540,119.046 280.276 C 117.842 280.159,117.305 280.221,117.646 280.437 M144.000 280.400 L 142.200 280.680 143.800 280.712 C 144.680 280.729,145.760 280.589,146.200 280.400 C 147.127 280.002,146.561 280.002,144.000 280.400 M253.800 280.404 C 254.567 280.730,257.911 280.953,257.567 280.656 C 257.475 280.577,256.410 280.411,255.200 280.288 C 253.831 280.149,253.302 280.192,253.800 280.404 M280.200 280.400 L 278.200 280.674 280.000 280.731 C 280.990 280.762,282.070 280.613,282.400 280.400 C 282.730 280.187,282.820 280.038,282.600 280.069 C 282.380 280.100,281.300 280.249,280.200 280.400 M132.000 281.200 L 125.800 281.432 131.800 281.469 C 135.100 281.489,138.340 281.368,139.000 281.200 C 140.026 280.939,140.055 280.900,139.200 280.931 C 138.650 280.952,135.410 281.073,132.000 281.200 M261.023 281.253 C 261.670 281.392,264.900 281.505,268.200 281.505 C 271.500 281.505,274.730 281.392,275.377 281.253 C 276.025 281.114,272.795 281.000,268.200 281.000 C 263.605 281.000,260.375 281.114,261.023 281.253 " stroke="none" fill="#a5d28e" fill-rule="evenodd"></path></g></svg>